<?xml version="1.0" encoding="utf-8"?>
<!-- Generator: Adobe Illustrator 25.1.0, SVG Export Plug-In . SVG Version: 6.00 Build 0)  -->
<svg version="1.1" xmlns="http://www.w3.org/2000/svg" xmlns:xlink="http://www.w3.org/1999/xlink" x="0px" y="0px"
	 viewBox="0 0 200 200" style="enable-background:new 0 0 200 200;" xml:space="preserve">
<style type="text/css">
	.st0{display:none;}
	.st1{display:inline;}
	.st2{fill:#2B2B2B;}
	.st3{display:inline;fill:none;stroke:#000000;stroke-miterlimit:10;}
	.st4{display:none;fill:none;stroke:#000000;stroke-miterlimit:10;}
</style>
<g id="Calque_1_-_copie" class="st0">
	<g class="st1">
		<polygon class="st2" points="129.07,0 212.61,0 212.61,200 		"/>
		<path class="st2" d="M-12.36,100c0,21.71,6.16,41.98,16.82,59.16L-12.61,200V0h61.33C12.45,18.63-12.36,56.42-12.36,100z"/>
		<path class="st2" d="M70.99,0l-2.06,4.92L10.52,144.67l-6.06,14.49C-6.2,141.98-12.36,121.71-12.36,100
			c0-43.58,24.81-81.37,61.08-100H70.99z"/>
		<polygon class="st2" points="100.34,72.2 154.12,199.81 118.87,199.81 102.78,159.17 63.43,159.17 		"/>
	</g>
	<path class="st3" d="M200,100c0,19.32-5.47,37.36-14.97,52.64c-9.13,14.74-22,26.92-37.27,35.24c-0.59,0.33-1.19,0.64-1.79,0.95
		C132.21,195.97,116.58,200,100,200c-35.91,0-67.4-18.93-85.03-47.35C5.48,137.36,0,119.32,0,100c0-38.79,22.08-72.42,54.36-89
		C68.04,3.97,83.56,0,100,0s31.96,3.97,45.64,11C177.92,27.58,200,61.21,200,100z"/>
</g>
<g id="Calque_1">
	<g>
		<path class="st2" d="M200,100c0,16.05-3.78,31.23-10.51,44.66L131.13,4.94c5.02,1.65,9.87,3.67,14.51,6.06
			C177.92,27.58,200,61.21,200,100z"/>
		<path class="st2" d="M68.93,4.92L10.52,144.67C3.79,131.23,0,116.06,0,100c0-38.79,22.08-72.42,54.36-89
			C59.02,8.6,63.89,6.57,68.93,4.92z"/>
		<path class="st2" d="M148.84,187.28c-0.36,0.21-0.72,0.4-1.08,0.6c-0.59,0.33-1.19,0.64-1.79,0.95
			c-8.57,4.45-17.87,7.69-27.68,9.5h-0.01l-15.5-39.16H63.43l36.91-86.97L148.84,187.28z"/>
	</g>
	<path class="st4" d="M200,100c0,16.05-3.78,31.23-10.51,44.66c-1.36,2.74-2.85,5.4-4.46,7.98c-8.91,14.39-21.39,26.34-36.19,34.64
		c-0.36,0.21-0.72,0.4-1.08,0.6c-0.59,0.33-1.19,0.64-1.79,0.95c-8.57,4.45-17.87,7.69-27.68,9.5h-0.01
		c-5.93,1.1-12.03,1.67-18.28,1.67c-35.91,0-67.4-18.93-85.03-47.35c-1.6-2.58-3.09-5.24-4.45-7.97v-0.01
		C3.79,131.23,0,116.06,0,100c0-38.79,22.08-72.42,54.36-89c4.66-2.4,9.53-4.43,14.57-6.08C78.71,1.73,89.16,0,100,0
		c10.87,0,21.33,1.73,31.13,4.94c5.02,1.65,9.87,3.67,14.51,6.06C177.92,27.58,200,61.21,200,100z"/>
	<g>
	</g>
	<g>
	</g>
	<g>
	</g>
	<g>
	</g>
	<g>
	</g>
	<g>
	</g>
	<g>
	</g>
	<g>
	</g>
	<g>
	</g>
	<g>
	</g>
	<g>
	</g>
	<g>
	</g>
	<g>
	</g>
	<g>
	</g>
	<g>
	</g>
</g>
</svg>
